<mxfile host="app.diagrams.net" modified="2023-04-10T08:08:52.920Z" agent="Mozilla/5.0 (Windows NT 10.0; Win64; x64) AppleWebKit/537.36 (KHTML, like Gecko) Chrome/109.0.0.0 Safari/537.36" etag="BQ5-4N_v9sz1siXZtgWz" version="21.1.2" type="github">
  <diagram name="第 1 页" id="AVt_y9dyFcYkNv5ktKgn">
    <mxGraphModel dx="1224" dy="708" grid="1" gridSize="10" guides="1" tooltips="1" connect="1" arrows="1" fold="1" page="1" pageScale="1" pageWidth="827" pageHeight="1169" math="0" shadow="0">
      <root>
        <mxCell id="0" />
        <mxCell id="1" parent="0" />
        <mxCell id="YUauxcNz8qm9SXKkw9LV-1" value="车品订单门店校验" style="swimlane;childLayout=stackLayout;resizeParent=1;resizeParentMax=0;startSize=20;html=1;strokeColor=#666666;fillColor=#f5f5f5;fontColor=#333333;" vertex="1" parent="1">
          <mxGeometry x="200" y="550" width="894" height="1730" as="geometry" />
        </mxCell>
        <mxCell id="YUauxcNz8qm9SXKkw9LV-2" style="edgeStyle=orthogonalEdgeStyle;rounded=0;orthogonalLoop=1;jettySize=auto;html=1;exitX=1;exitY=0.5;exitDx=0;exitDy=0;exitPerimeter=0;strokeColor=#00994D;" edge="1" parent="YUauxcNz8qm9SXKkw9LV-1" source="YUauxcNz8qm9SXKkw9LV-23" target="YUauxcNz8qm9SXKkw9LV-50">
          <mxGeometry relative="1" as="geometry" />
        </mxCell>
        <mxCell id="YUauxcNz8qm9SXKkw9LV-3" value="是" style="edgeLabel;html=1;align=center;verticalAlign=middle;resizable=0;points=[];" vertex="1" connectable="0" parent="YUauxcNz8qm9SXKkw9LV-2">
          <mxGeometry x="-0.545" y="3" relative="1" as="geometry">
            <mxPoint as="offset" />
          </mxGeometry>
        </mxCell>
        <mxCell id="YUauxcNz8qm9SXKkw9LV-8" style="edgeStyle=orthogonalEdgeStyle;rounded=0;orthogonalLoop=1;jettySize=auto;html=1;exitX=0.5;exitY=1;exitDx=0;exitDy=0;strokeColor=#009900;entryX=0.5;entryY=0;entryDx=0;entryDy=0;" edge="1" parent="YUauxcNz8qm9SXKkw9LV-1" source="YUauxcNz8qm9SXKkw9LV-50" target="YUauxcNz8qm9SXKkw9LV-25">
          <mxGeometry relative="1" as="geometry">
            <mxPoint x="340" y="730" as="targetPoint" />
            <Array as="points">
              <mxPoint x="685" y="510" />
              <mxPoint x="410" y="510" />
            </Array>
          </mxGeometry>
        </mxCell>
        <mxCell id="YUauxcNz8qm9SXKkw9LV-10" style="edgeStyle=orthogonalEdgeStyle;rounded=0;orthogonalLoop=1;jettySize=auto;html=1;exitX=0.5;exitY=1;exitDx=0;exitDy=0;strokeColor=#6C8EBF;entryX=0.5;entryY=0;entryDx=0;entryDy=0;" edge="1" parent="YUauxcNz8qm9SXKkw9LV-1" source="YUauxcNz8qm9SXKkw9LV-52" target="YUauxcNz8qm9SXKkw9LV-27">
          <mxGeometry relative="1" as="geometry">
            <mxPoint x="80" y="730" as="targetPoint" />
          </mxGeometry>
        </mxCell>
        <mxCell id="YUauxcNz8qm9SXKkw9LV-11" style="edgeStyle=orthogonalEdgeStyle;rounded=0;orthogonalLoop=1;jettySize=auto;html=1;entryX=0.5;entryY=0;entryDx=0;entryDy=0;strokeColor=#6C8EBF;exitX=0.5;exitY=1;exitDx=0;exitDy=0;" edge="1" parent="YUauxcNz8qm9SXKkw9LV-1" source="YUauxcNz8qm9SXKkw9LV-27" target="YUauxcNz8qm9SXKkw9LV-53">
          <mxGeometry relative="1" as="geometry">
            <mxPoint x="220" y="880" as="targetPoint" />
            <Array as="points">
              <mxPoint x="134" y="850" />
              <mxPoint x="730" y="850" />
            </Array>
          </mxGeometry>
        </mxCell>
        <mxCell id="YUauxcNz8qm9SXKkw9LV-13" style="edgeStyle=orthogonalEdgeStyle;rounded=0;orthogonalLoop=1;jettySize=auto;html=1;entryX=0.5;entryY=0;entryDx=0;entryDy=0;strokeColor=#009900;exitX=0.5;exitY=1;exitDx=0;exitDy=0;" edge="1" parent="YUauxcNz8qm9SXKkw9LV-1" source="YUauxcNz8qm9SXKkw9LV-53" target="YUauxcNz8qm9SXKkw9LV-30">
          <mxGeometry relative="1" as="geometry">
            <mxPoint x="220" y="910" as="targetPoint" />
            <mxPoint x="615" y="890" as="sourcePoint" />
            <Array as="points">
              <mxPoint x="615" y="970" />
              <mxPoint x="220" y="970" />
            </Array>
          </mxGeometry>
        </mxCell>
        <mxCell id="YUauxcNz8qm9SXKkw9LV-14" style="edgeStyle=orthogonalEdgeStyle;rounded=0;orthogonalLoop=1;jettySize=auto;html=1;entryX=0.5;entryY=0;entryDx=0;entryDy=0;strokeColor=#009900;" edge="1" parent="YUauxcNz8qm9SXKkw9LV-1" source="YUauxcNz8qm9SXKkw9LV-31" target="YUauxcNz8qm9SXKkw9LV-54">
          <mxGeometry relative="1" as="geometry">
            <mxPoint x="600" y="1177" as="targetPoint" />
          </mxGeometry>
        </mxCell>
        <mxCell id="YUauxcNz8qm9SXKkw9LV-15" value="true" style="edgeLabel;html=1;align=center;verticalAlign=middle;resizable=0;points=[];" vertex="1" connectable="0" parent="YUauxcNz8qm9SXKkw9LV-14">
          <mxGeometry x="-0.7671" y="1" relative="1" as="geometry">
            <mxPoint as="offset" />
          </mxGeometry>
        </mxCell>
        <mxCell id="YUauxcNz8qm9SXKkw9LV-16" style="edgeStyle=orthogonalEdgeStyle;rounded=0;orthogonalLoop=1;jettySize=auto;html=1;entryX=0.5;entryY=0;entryDx=0;entryDy=0;strokeColor=#6C8EBF;" edge="1" parent="YUauxcNz8qm9SXKkw9LV-1" source="YUauxcNz8qm9SXKkw9LV-31" target="YUauxcNz8qm9SXKkw9LV-55">
          <mxGeometry relative="1" as="geometry">
            <mxPoint x="620" y="1417" as="targetPoint" />
            <Array as="points">
              <mxPoint x="80" y="1142" />
              <mxPoint x="80" y="1297" />
              <mxPoint x="729" y="1297" />
            </Array>
          </mxGeometry>
        </mxCell>
        <mxCell id="YUauxcNz8qm9SXKkw9LV-17" value="false" style="edgeLabel;html=1;align=center;verticalAlign=middle;resizable=0;points=[];" vertex="1" connectable="0" parent="YUauxcNz8qm9SXKkw9LV-16">
          <mxGeometry x="-0.9394" y="-1" relative="1" as="geometry">
            <mxPoint as="offset" />
          </mxGeometry>
        </mxCell>
        <mxCell id="YUauxcNz8qm9SXKkw9LV-48" style="edgeStyle=orthogonalEdgeStyle;rounded=0;orthogonalLoop=1;jettySize=auto;html=1;strokeColor=#009900;entryX=0.5;entryY=0;entryDx=0;entryDy=0;exitX=0.5;exitY=1;exitDx=0;exitDy=0;" edge="1" parent="YUauxcNz8qm9SXKkw9LV-1" source="YUauxcNz8qm9SXKkw9LV-54" target="YUauxcNz8qm9SXKkw9LV-44">
          <mxGeometry relative="1" as="geometry">
            <mxPoint x="354" y="1457" as="targetPoint" />
            <Array as="points">
              <mxPoint x="730" y="1228" />
              <mxPoint x="730" y="1267" />
              <mxPoint x="434" y="1267" />
            </Array>
          </mxGeometry>
        </mxCell>
        <mxCell id="YUauxcNz8qm9SXKkw9LV-18" value="交易" style="swimlane;startSize=20;html=1;fillColor=#f5f5f5;fontColor=#333333;strokeColor=#666666;" vertex="1" parent="YUauxcNz8qm9SXKkw9LV-1">
          <mxGeometry y="20" width="564" height="1710" as="geometry" />
        </mxCell>
        <mxCell id="YUauxcNz8qm9SXKkw9LV-19" style="edgeStyle=orthogonalEdgeStyle;rounded=0;orthogonalLoop=1;jettySize=auto;html=1;strokeColor=#009900;" edge="1" parent="YUauxcNz8qm9SXKkw9LV-18" source="YUauxcNz8qm9SXKkw9LV-20">
          <mxGeometry relative="1" as="geometry">
            <mxPoint x="274" y="140" as="targetPoint" />
          </mxGeometry>
        </mxCell>
        <mxCell id="YUauxcNz8qm9SXKkw9LV-20" value="开始" style="strokeWidth=1;html=1;shape=mxgraph.flowchart.start_2;whiteSpace=wrap;fillColor=#d5e8d4;strokeColor=none;" vertex="1" parent="YUauxcNz8qm9SXKkw9LV-18">
          <mxGeometry x="249" y="39" width="50" height="50" as="geometry" />
        </mxCell>
        <mxCell id="YUauxcNz8qm9SXKkw9LV-23" value="门店检查开关" style="strokeWidth=1;html=1;shape=mxgraph.flowchart.decision;whiteSpace=wrap;fillColor=#d5e8d4;strokeColor=none;" vertex="1" parent="YUauxcNz8qm9SXKkw9LV-18">
          <mxGeometry x="229" y="352" width="90" height="50" as="geometry" />
        </mxCell>
        <mxCell id="YUauxcNz8qm9SXKkw9LV-25" value="&lt;div&gt;校验门店营业状态&amp;amp;暂停营业&lt;/div&gt;" style="rounded=1;whiteSpace=wrap;html=1;absoluteArcSize=1;arcSize=14;strokeWidth=1;align=left;strokeColor=none;fillColor=#d5e8d4;" vertex="1" parent="YUauxcNz8qm9SXKkw9LV-18">
          <mxGeometry x="349" y="710" width="120" height="30" as="geometry" />
        </mxCell>
        <mxCell id="YUauxcNz8qm9SXKkw9LV-27" value="&lt;div&gt;1 校验门店营业状态&lt;/div&gt;&lt;div&gt;2 暂停营业&lt;/div&gt;" style="rounded=1;whiteSpace=wrap;html=1;absoluteArcSize=1;arcSize=14;strokeWidth=1;align=left;strokeColor=none;fillColor=#dae8fc;" vertex="1" parent="YUauxcNz8qm9SXKkw9LV-18">
          <mxGeometry x="79" y="710" width="110" height="30" as="geometry" />
        </mxCell>
        <mxCell id="YUauxcNz8qm9SXKkw9LV-28" value="结束" style="strokeWidth=1;html=1;shape=mxgraph.flowchart.start_2;whiteSpace=wrap;fillColor=#d5e8d4;strokeColor=none;" vertex="1" parent="YUauxcNz8qm9SXKkw9LV-18">
          <mxGeometry x="244" y="1640" width="50" height="50" as="geometry" />
        </mxCell>
        <mxCell id="YUauxcNz8qm9SXKkw9LV-29" style="edgeStyle=orthogonalEdgeStyle;rounded=0;orthogonalLoop=1;jettySize=auto;html=1;exitX=0.5;exitY=1;exitDx=0;exitDy=0;entryX=0.5;entryY=0;entryDx=0;entryDy=0;entryPerimeter=0;strokeColor=#009900;" edge="1" parent="YUauxcNz8qm9SXKkw9LV-18" source="YUauxcNz8qm9SXKkw9LV-30" target="YUauxcNz8qm9SXKkw9LV-31">
          <mxGeometry relative="1" as="geometry">
            <mxPoint x="269" y="1087" as="targetPoint" />
          </mxGeometry>
        </mxCell>
        <mxCell id="YUauxcNz8qm9SXKkw9LV-30" value="&lt;div&gt;校验门店爆单&lt;/div&gt;" style="rounded=1;whiteSpace=wrap;html=1;absoluteArcSize=1;arcSize=14;strokeWidth=1;align=left;strokeColor=none;fillColor=#d5e8d4;" vertex="1" parent="YUauxcNz8qm9SXKkw9LV-18">
          <mxGeometry x="229" y="1017" width="80" height="30" as="geometry" />
        </mxCell>
        <mxCell id="YUauxcNz8qm9SXKkw9LV-31" value="门店服务&lt;br&gt;校验开关" style="strokeWidth=1;html=1;shape=mxgraph.flowchart.decision;whiteSpace=wrap;fillColor=#d5e8d4;strokeColor=none;" vertex="1" parent="YUauxcNz8qm9SXKkw9LV-18">
          <mxGeometry x="224" y="1097" width="90" height="50" as="geometry" />
        </mxCell>
        <mxCell id="YUauxcNz8qm9SXKkw9LV-37" style="edgeStyle=orthogonalEdgeStyle;rounded=0;orthogonalLoop=1;jettySize=auto;html=1;entryX=0.5;entryY=0;entryDx=0;entryDy=0;entryPerimeter=0;strokeColor=#009900;" edge="1" parent="YUauxcNz8qm9SXKkw9LV-18" source="YUauxcNz8qm9SXKkw9LV-38" target="YUauxcNz8qm9SXKkw9LV-28">
          <mxGeometry relative="1" as="geometry" />
        </mxCell>
        <mxCell id="YUauxcNz8qm9SXKkw9LV-38" value="&lt;div&gt;校验门店支持服务商品&lt;/div&gt;" style="rounded=1;whiteSpace=wrap;html=1;absoluteArcSize=1;arcSize=14;strokeWidth=1;align=left;strokeColor=none;fillColor=#d5e8d4;" vertex="1" parent="YUauxcNz8qm9SXKkw9LV-18">
          <mxGeometry x="204" y="1560" width="130" height="30" as="geometry" />
        </mxCell>
        <mxCell id="YUauxcNz8qm9SXKkw9LV-39" style="edgeStyle=orthogonalEdgeStyle;rounded=0;orthogonalLoop=1;jettySize=auto;html=1;exitX=0.5;exitY=1;exitDx=0;exitDy=0;entryX=0.5;entryY=0;entryDx=0;entryDy=0;strokeColor=#6C8EBF;" edge="1" parent="YUauxcNz8qm9SXKkw9LV-18" source="YUauxcNz8qm9SXKkw9LV-40" target="YUauxcNz8qm9SXKkw9LV-38">
          <mxGeometry relative="1" as="geometry">
            <mxPoint x="124" y="1480" as="sourcePoint" />
            <Array as="points">
              <mxPoint x="100" y="1480" />
              <mxPoint x="100" y="1523" />
              <mxPoint x="269" y="1523" />
            </Array>
          </mxGeometry>
        </mxCell>
        <mxCell id="YUauxcNz8qm9SXKkw9LV-40" value="获取FU,BU,XU&lt;span style=&quot;background-color: initial;&quot;&gt;商品集合&lt;/span&gt;" style="rounded=1;whiteSpace=wrap;html=1;absoluteArcSize=1;arcSize=14;strokeWidth=1;align=left;strokeColor=none;fillColor=#dae8fc;" vertex="1" parent="YUauxcNz8qm9SXKkw9LV-18">
          <mxGeometry x="36" y="1450" width="130" height="30" as="geometry" />
        </mxCell>
        <mxCell id="YUauxcNz8qm9SXKkw9LV-43" style="edgeStyle=orthogonalEdgeStyle;rounded=0;orthogonalLoop=1;jettySize=auto;html=1;entryX=0.5;entryY=0;entryDx=0;entryDy=0;strokeColor=#009900;" edge="1" parent="YUauxcNz8qm9SXKkw9LV-18" source="YUauxcNz8qm9SXKkw9LV-44" target="YUauxcNz8qm9SXKkw9LV-38">
          <mxGeometry relative="1" as="geometry">
            <Array as="points">
              <mxPoint x="434" y="1523" />
              <mxPoint x="269" y="1523" />
            </Array>
          </mxGeometry>
        </mxCell>
        <mxCell id="YUauxcNz8qm9SXKkw9LV-44" value="获取&lt;span style=&quot;background-color: initial;&quot;&gt;商品SkuId&lt;/span&gt;" style="rounded=1;whiteSpace=wrap;html=1;absoluteArcSize=1;arcSize=14;strokeWidth=1;align=center;strokeColor=none;fillColor=#d5e8d4;" vertex="1" parent="YUauxcNz8qm9SXKkw9LV-18">
          <mxGeometry x="379" y="1450" width="110" height="30" as="geometry" />
        </mxCell>
        <mxCell id="YUauxcNz8qm9SXKkw9LV-46" value="create.order.setting.checkShopSupportWashTrigger:true" style="shape=callout;whiteSpace=wrap;html=1;perimeter=calloutPerimeter;position2=1;fillColor=#fad9d5;strokeColor=none;rounded=1;align=left;" vertex="1" parent="YUauxcNz8qm9SXKkw9LV-18">
          <mxGeometry x="-86" y="1030" width="310" height="67" as="geometry" />
        </mxCell>
        <mxCell id="YUauxcNz8qm9SXKkw9LV-61" style="edgeStyle=orthogonalEdgeStyle;rounded=0;orthogonalLoop=1;jettySize=auto;html=1;entryX=0;entryY=0.5;entryDx=0;entryDy=0;entryPerimeter=0;strokeColor=#FF9999;exitX=0;exitY=0.5;exitDx=0;exitDy=0;exitPerimeter=0;" edge="1" parent="YUauxcNz8qm9SXKkw9LV-18" source="YUauxcNz8qm9SXKkw9LV-59" target="YUauxcNz8qm9SXKkw9LV-28">
          <mxGeometry relative="1" as="geometry">
            <Array as="points">
              <mxPoint x="20" y="145" />
              <mxPoint x="20" y="1665" />
            </Array>
          </mxGeometry>
        </mxCell>
        <mxCell id="YUauxcNz8qm9SXKkw9LV-65" value="是" style="edgeLabel;html=1;align=center;verticalAlign=middle;resizable=0;points=[];" vertex="1" connectable="0" parent="YUauxcNz8qm9SXKkw9LV-61">
          <mxGeometry x="-0.9259" y="-2" relative="1" as="geometry">
            <mxPoint as="offset" />
          </mxGeometry>
        </mxCell>
        <mxCell id="YUauxcNz8qm9SXKkw9LV-63" style="edgeStyle=orthogonalEdgeStyle;rounded=0;orthogonalLoop=1;jettySize=auto;html=1;exitX=0.5;exitY=1;exitDx=0;exitDy=0;exitPerimeter=0;strokeColor=#009900;" edge="1" parent="YUauxcNz8qm9SXKkw9LV-18" source="YUauxcNz8qm9SXKkw9LV-59" target="YUauxcNz8qm9SXKkw9LV-60">
          <mxGeometry relative="1" as="geometry">
            <Array as="points">
              <mxPoint x="274" y="190" />
              <mxPoint x="274" y="190" />
            </Array>
          </mxGeometry>
        </mxCell>
        <mxCell id="YUauxcNz8qm9SXKkw9LV-66" value="否" style="edgeLabel;html=1;align=center;verticalAlign=middle;resizable=0;points=[];" vertex="1" connectable="0" parent="YUauxcNz8qm9SXKkw9LV-63">
          <mxGeometry x="-0.25" relative="1" as="geometry">
            <mxPoint as="offset" />
          </mxGeometry>
        </mxCell>
        <mxCell id="YUauxcNz8qm9SXKkw9LV-59" value="是否虚拟门店" style="strokeWidth=1;html=1;shape=mxgraph.flowchart.decision;whiteSpace=wrap;fillColor=#d5e8d4;strokeColor=none;" vertex="1" parent="YUauxcNz8qm9SXKkw9LV-18">
          <mxGeometry x="229" y="120" width="90" height="50" as="geometry" />
        </mxCell>
        <mxCell id="YUauxcNz8qm9SXKkw9LV-62" style="edgeStyle=orthogonalEdgeStyle;rounded=0;orthogonalLoop=1;jettySize=auto;html=1;exitX=0;exitY=0.5;exitDx=0;exitDy=0;exitPerimeter=0;entryX=0;entryY=0.5;entryDx=0;entryDy=0;entryPerimeter=0;strokeColor=#FF6666;" edge="1" parent="YUauxcNz8qm9SXKkw9LV-18" source="YUauxcNz8qm9SXKkw9LV-60" target="YUauxcNz8qm9SXKkw9LV-28">
          <mxGeometry relative="1" as="geometry">
            <mxPoint x="240" y="1760" as="targetPoint" />
            <Array as="points">
              <mxPoint x="20" y="225" />
              <mxPoint x="20" y="1665" />
            </Array>
          </mxGeometry>
        </mxCell>
        <mxCell id="YUauxcNz8qm9SXKkw9LV-67" value="否" style="edgeLabel;html=1;align=center;verticalAlign=middle;resizable=0;points=[];" vertex="1" connectable="0" parent="YUauxcNz8qm9SXKkw9LV-62">
          <mxGeometry x="-0.9299" y="-1" relative="1" as="geometry">
            <mxPoint as="offset" />
          </mxGeometry>
        </mxCell>
        <mxCell id="YUauxcNz8qm9SXKkw9LV-64" style="edgeStyle=orthogonalEdgeStyle;rounded=0;orthogonalLoop=1;jettySize=auto;html=1;entryX=0.5;entryY=0;entryDx=0;entryDy=0;entryPerimeter=0;strokeColor=#009900;" edge="1" parent="YUauxcNz8qm9SXKkw9LV-18" source="YUauxcNz8qm9SXKkw9LV-60" target="YUauxcNz8qm9SXKkw9LV-23">
          <mxGeometry relative="1" as="geometry" />
        </mxCell>
        <mxCell id="YUauxcNz8qm9SXKkw9LV-68" value="是" style="edgeLabel;html=1;align=center;verticalAlign=middle;resizable=0;points=[];" vertex="1" connectable="0" parent="YUauxcNz8qm9SXKkw9LV-64">
          <mxGeometry x="-0.2549" relative="1" as="geometry">
            <mxPoint as="offset" />
          </mxGeometry>
        </mxCell>
        <mxCell id="YUauxcNz8qm9SXKkw9LV-60" value="业务线是否支持" style="strokeWidth=1;html=1;shape=mxgraph.flowchart.decision;whiteSpace=wrap;fillColor=#d5e8d4;strokeColor=none;" vertex="1" parent="YUauxcNz8qm9SXKkw9LV-18">
          <mxGeometry x="229" y="200" width="90" height="50" as="geometry" />
        </mxCell>
        <mxCell id="YUauxcNz8qm9SXKkw9LV-58" value="create.order.setting.common.gray.switch:&lt;br&gt;&lt;div style=&quot;&quot;&gt;&lt;span style=&quot;background-color: initial;&quot;&gt;&quot;shopCheckSwitch&quot;:&lt;/span&gt;{&lt;/div&gt;&lt;div&gt;&lt;span style=&quot;&quot;&gt;&lt;/span&gt;&amp;nbsp;&lt;span style=&quot;white-space: pre;&quot;&gt;	&lt;/span&gt;&quot;signal&quot;: true,&lt;/div&gt;&lt;div&gt;&lt;span style=&quot;&quot;&gt;	&lt;/span&gt;&lt;span style=&quot;white-space: pre;&quot;&gt;	&lt;/span&gt;&quot;keyStartWithsIn&quot;: &quot;&quot;,&lt;/div&gt;&lt;div&gt;&lt;span style=&quot;&quot;&gt;	&lt;/span&gt;&lt;span style=&quot;white-space: pre;&quot;&gt;	&lt;/span&gt;&quot;keyIn&quot;: &quot;&quot;&lt;/div&gt;&lt;div&gt;}&lt;/div&gt;" style="shape=callout;whiteSpace=wrap;html=1;perimeter=calloutPerimeter;position2=1;fillColor=#fad9d5;strokeColor=none;rounded=1;align=left;" vertex="1" parent="YUauxcNz8qm9SXKkw9LV-18">
          <mxGeometry x="30" y="250" width="230" height="120" as="geometry" />
        </mxCell>
        <mxCell id="YUauxcNz8qm9SXKkw9LV-69" value="create.order.setting.common.gray.switch:&lt;br&gt;&lt;div style=&quot;&quot;&gt;&lt;span style=&quot;background-color: initial;&quot;&gt;&quot;skipShopCheckOrderChannel&quot;:全量&lt;/span&gt;&lt;/div&gt;&lt;div style=&quot;&quot;&gt;&quot;skipShopCheckOrderType&quot;:全量&lt;/div&gt;" style="shape=callout;whiteSpace=wrap;html=1;perimeter=calloutPerimeter;position2=0;fillColor=#fad9d5;strokeColor=none;rounded=1;align=left;" vertex="1" parent="YUauxcNz8qm9SXKkw9LV-18">
          <mxGeometry x="330" y="70" width="230" height="80" as="geometry" />
        </mxCell>
        <mxCell id="YUauxcNz8qm9SXKkw9LV-49" value="门店" style="swimlane;startSize=20;html=1;fillColor=#f5f5f5;fontColor=#333333;strokeColor=#666666;" vertex="1" parent="YUauxcNz8qm9SXKkw9LV-1">
          <mxGeometry x="564" y="20" width="330" height="1710" as="geometry" />
        </mxCell>
        <mxCell id="YUauxcNz8qm9SXKkw9LV-50" value="&lt;div&gt;APPID:shop-shopinfo&lt;/div&gt;&lt;div&gt;URI:/yewu/common/get-shop-place-order-status&lt;/div&gt;&lt;div&gt;获取门店下单相关信息&lt;br&gt;&lt;/div&gt;" style="rounded=1;whiteSpace=wrap;html=1;absoluteArcSize=1;arcSize=14;strokeWidth=1;strokeColor=none;fillColor=#d5e8d4;" vertex="1" parent="YUauxcNz8qm9SXKkw9LV-49">
          <mxGeometry x="15" y="412" width="300" height="50" as="geometry" />
        </mxCell>
        <mxCell id="YUauxcNz8qm9SXKkw9LV-52" value="&lt;div&gt;APPID:shop-shopinfo&lt;/div&gt;&lt;div&gt;URI:/yewu-shopinfo/query-shops-shop-config-by-id/{shopId}&lt;/div&gt;&lt;div&gt;查询门店基础信息（包含开业时间、ABC类型）&lt;br&gt;&lt;/div&gt;" style="rounded=1;whiteSpace=wrap;html=1;absoluteArcSize=1;arcSize=14;strokeWidth=1;strokeColor=none;fillColor=#dae8fc;" vertex="1" parent="YUauxcNz8qm9SXKkw9LV-49">
          <mxGeometry x="10" y="589" width="310" height="61" as="geometry" />
        </mxCell>
        <mxCell id="YUauxcNz8qm9SXKkw9LV-53" value="&lt;div&gt;APPID:shop-shopinfo&lt;/div&gt;&lt;div&gt;URI:/cl-shopinfo/query-shop-orders-count&lt;/div&gt;&lt;div&gt;查询门店约单量爆单量&lt;br&gt;&lt;/div&gt;" style="rounded=1;whiteSpace=wrap;html=1;absoluteArcSize=1;arcSize=14;strokeWidth=1;strokeColor=none;fillColor=#d5e8d4;" vertex="1" parent="YUauxcNz8qm9SXKkw9LV-49">
          <mxGeometry x="10" y="870" width="310" height="50" as="geometry" />
        </mxCell>
        <mxCell id="YUauxcNz8qm9SXKkw9LV-54" value="&lt;div&gt;APPID:shop-extendinfo&lt;/div&gt;&lt;div&gt;URI:/yewu/shop-service/get-shop-services&lt;/div&gt;&lt;div&gt;门店支持服务商品(包含洗美)&lt;br&gt;&lt;/div&gt;" style="rounded=1;whiteSpace=wrap;html=1;absoluteArcSize=1;arcSize=14;strokeWidth=1;strokeColor=none;fillColor=#d5e8d4;" vertex="1" parent="YUauxcNz8qm9SXKkw9LV-49">
          <mxGeometry x="50" y="1157" width="230" height="51" as="geometry" />
        </mxCell>
        <mxCell id="YUauxcNz8qm9SXKkw9LV-55" value="&lt;div&gt;APPID:shop-extendinfo&lt;/div&gt;&lt;div&gt;URI:/yewu-shopserver/query-shop-service-list&lt;/div&gt;&lt;div&gt;门店支持服务商品&lt;br&gt;&lt;/div&gt;" style="rounded=1;whiteSpace=wrap;html=1;absoluteArcSize=1;arcSize=14;strokeWidth=1;strokeColor=none;fillColor=#dae8fc;" vertex="1" parent="YUauxcNz8qm9SXKkw9LV-49">
          <mxGeometry x="40" y="1317" width="250" height="50" as="geometry" />
        </mxCell>
        <mxCell id="YUauxcNz8qm9SXKkw9LV-56" style="edgeStyle=orthogonalEdgeStyle;rounded=0;orthogonalLoop=1;jettySize=auto;html=1;entryX=0.5;entryY=0;entryDx=0;entryDy=0;strokeColor=#6C8EBF;" edge="1" parent="YUauxcNz8qm9SXKkw9LV-1" target="YUauxcNz8qm9SXKkw9LV-40">
          <mxGeometry relative="1" as="geometry">
            <mxPoint x="80" y="1547" as="targetPoint" />
            <Array as="points">
              <mxPoint x="615" y="1417" />
              <mxPoint x="100" y="1417" />
            </Array>
            <mxPoint x="730" y="1390" as="sourcePoint" />
          </mxGeometry>
        </mxCell>
        <mxCell id="YUauxcNz8qm9SXKkw9LV-57" style="edgeStyle=orthogonalEdgeStyle;rounded=0;orthogonalLoop=1;jettySize=auto;html=1;exitX=0.5;exitY=1;exitDx=0;exitDy=0;strokeColor=#00994D;entryX=0.5;entryY=0;entryDx=0;entryDy=0;" edge="1" parent="YUauxcNz8qm9SXKkw9LV-1" source="YUauxcNz8qm9SXKkw9LV-25" target="YUauxcNz8qm9SXKkw9LV-53">
          <mxGeometry relative="1" as="geometry">
            <mxPoint x="460" y="850" as="targetPoint" />
            <Array as="points">
              <mxPoint x="409" y="850" />
              <mxPoint x="730" y="850" />
            </Array>
          </mxGeometry>
        </mxCell>
        <mxCell id="YUauxcNz8qm9SXKkw9LV-21" style="edgeStyle=orthogonalEdgeStyle;rounded=0;orthogonalLoop=1;jettySize=auto;html=1;exitX=0;exitY=0.5;exitDx=0;exitDy=0;exitPerimeter=0;strokeColor=#6C8EBF;entryX=0.5;entryY=0;entryDx=0;entryDy=0;" edge="1" parent="YUauxcNz8qm9SXKkw9LV-1" source="YUauxcNz8qm9SXKkw9LV-23" target="YUauxcNz8qm9SXKkw9LV-52">
          <mxGeometry relative="1" as="geometry">
            <mxPoint x="144" y="562" as="targetPoint" />
            <Array as="points">
              <mxPoint x="209" y="397" />
              <mxPoint x="209" y="560" />
              <mxPoint x="730" y="560" />
            </Array>
          </mxGeometry>
        </mxCell>
        <mxCell id="YUauxcNz8qm9SXKkw9LV-22" value="否" style="edgeLabel;html=1;align=center;verticalAlign=middle;resizable=0;points=[];" vertex="1" connectable="0" parent="YUauxcNz8qm9SXKkw9LV-21">
          <mxGeometry x="-0.088" y="-2" relative="1" as="geometry">
            <mxPoint as="offset" />
          </mxGeometry>
        </mxCell>
      </root>
    </mxGraphModel>
  </diagram>
</mxfile>
